# xmcd
#
# Track frame offsets:
#	150
#	18104
#	36247
#	54357
#	72203
#	89131
#	105405
#	118955
#	139129
#	157083
#	175226
#	193336
#	211182
#	228110
#	244384
#	257934
#
# Disc length: 3708 seconds
#
# Revision: 1
# Processed by: cddbd v1.5.2PL0 Copyright (c) Steve Scherf et al.
# Submitted via: audiograbber 1.83.01
#
DISCID=e80e7a10
DTITLE=Various Artist - CB60471
DYEAR=2011
DGENRE=Country
TTITLE0=Brantley Gilbert - Kick It In The Sticks
TTITLE1=Martina McBride - I'm Gonna Love You Through It
TTITLE2=Blake Shelton - God Gave Me You
TTITLE3=The Band Perry - All Your Life
TTITLE4=Brantley Gilbert - Country Must Be Country Wide
TTITLE5=Dolly Parton - Together You and I
TTITLE6=Craig Campbell - Fish
TTITLE7=Leann Rimes - Give
TTITLE8=Brantley Gilbert - Kick It In The Sticks (vocals)
TTITLE9=Martina McBride - I'm Gonna Love You Through It (vocals)
TTITLE10=Blake Shelton - God Gave Me You (vocals)
TTITLE11=The Band Perry - All Your Life (vocals)
TTITLE12=Brantley Gilbert - Country Must Be Country Wide (vocals)
TTITLE13=Dolly Parton - Together You and I (vocals)
TTITLE14=Craig Campbell - Fish (vocals)
TTITLE15=Leann Rimes - Give (vocals)
EXTD=
EXTT0=
EXTT1=
EXTT2=
EXTT3=
EXTT4=
EXTT5=
EXTT6=
EXTT7=
EXTT8=
EXTT9=
EXTT10=
EXTT11=
EXTT12=
EXTT13=
EXTT14=
EXTT15=
PLAYORDER=
